<svg width="79" height="18" viewBox="0 0 79 18" fill="none" xmlns="http://www.w3.org/2000/svg">
<path d="M11.4151 12.556C11.4151 14.976 9.47913 17.154 5.98113 17.154C2.79113 17.154 0.327133 15.482 0.283133 12.578H3.58313C3.67113 13.81 4.48513 14.624 5.91513 14.624C7.36713 14.624 8.22513 13.854 8.22513 12.754C8.22513 9.432 0.305133 11.434 0.327133 5.868C0.327133 3.096 2.57113 1.424 5.73913 1.424C8.88513 1.424 11.0411 3.03 11.2391 5.802H7.85113C7.78513 4.79 6.97113 3.998 5.65113 3.976C4.44113 3.932 3.53913 4.526 3.53913 5.78C3.53913 8.86 11.4151 7.144 11.4151 12.556ZM14.0854 17V0.72H17.1654V6.33C17.9574 5.296 19.3214 4.636 20.9494 4.636C23.6994 4.636 25.7014 6.484 25.7014 9.85V17H22.6214V10.268C22.6214 8.31 21.5434 7.254 19.9154 7.254C18.2434 7.254 17.1654 8.31 17.1654 10.268V17H14.0854ZM40.4003 10.906C40.4003 14.734 37.5843 17.198 34.0423 17.198C30.5223 17.198 27.8603 14.734 27.8603 10.906C27.8603 7.056 30.6103 4.614 34.1303 4.614C37.6503 4.614 40.4003 7.056 40.4003 10.906ZM30.9843 10.906C30.9843 13.326 32.3923 14.514 34.0423 14.514C35.6703 14.514 37.2323 13.326 37.2323 10.906C37.2323 8.464 35.7143 7.298 34.0863 7.298C32.4583 7.298 30.9843 8.464 30.9843 10.906ZM47.8956 7.144C46.4216 7.144 45.2556 8.09 45.0136 9.762H50.7996C50.7556 8.156 49.4796 7.144 47.8956 7.144ZM53.6816 13.172C53.0216 15.416 50.9976 17.198 47.9836 17.198C44.4416 17.198 41.8676 14.734 41.8676 10.906C41.8676 7.056 44.3756 4.614 47.9836 4.614C51.5036 4.614 53.9896 7.012 53.9896 10.642C53.9896 11.038 53.9676 11.434 53.9016 11.83H44.9916C45.1456 13.634 46.3776 14.646 47.9176 14.646C49.2376 14.646 49.9636 13.986 50.3596 13.172H53.6816ZM65.6977 13.524C65.6977 15.614 63.8717 17.198 60.9017 17.198C57.8437 17.198 55.7097 15.416 55.5777 13.15H58.6797C58.7897 14.074 59.6477 14.778 60.8797 14.778C62.0897 14.778 62.7497 14.228 62.7497 13.524C62.7497 11.346 55.8637 12.732 55.8637 8.266C55.8637 6.242 57.6677 4.614 60.6817 4.614C63.6297 4.614 65.4117 6.22 65.5877 8.64H62.6397C62.5517 7.694 61.8037 7.056 60.5937 7.056C59.4497 7.056 58.8557 7.518 58.8557 8.222C58.8557 10.444 65.6097 9.058 65.6977 13.524ZM74.958 17L72.45 13.216L70.228 17H66.928L70.91 10.884L66.884 4.812H70.36L72.846 8.574L75.09 4.812H78.39L74.386 10.884L78.434 17H74.958Z" fill="#000220"/>
</svg>
