<svg width="24" height="24" viewBox="0 0 24 24" fill="none" xmlns="http://www.w3.org/2000/svg">
<path d="M7.5 10.8C7.925 10.8 8.2815 10.6848 8.5695 10.4544C8.8565 10.2248 9 9.94 9 9.6V7.2H6V9.6C6 9.94 6.144 10.2248 6.432 10.4544C6.719 10.6848 7.075 10.8 7.5 10.8ZM9 4.8H15C15 4.14 14.7065 3.5752 14.1195 3.1056C13.5315 2.6352 12.825 2.4 12 2.4C11.175 2.4 10.469 2.6352 9.882 3.1056C9.294 3.5752 9 4.14 9 4.8ZM16.5 10.8C16.925 10.8 17.2815 10.6848 17.5695 10.4544C17.8565 10.2248 18 9.94 18 9.6V7.2H15V9.6C15 9.94 15.144 10.2248 15.432 10.4544C15.719 10.6848 16.075 10.8 16.5 10.8ZM3 24C2.175 24 1.469 23.7652 0.882 23.2956C0.294 22.8252 0 22.26 0 21.6V7.2C0 6.54 0.294 5.9752 0.882 5.5056C1.469 5.0352 2.175 4.8 3 4.8H6C6 3.48 6.5875 2.35 7.7625 1.41C8.9375 0.47 10.35 0 12 0C13.65 0 15.0625 0.47 16.2375 1.41C17.4125 2.35 18 3.48 18 4.8H21C21.825 4.8 22.5315 5.0352 23.1195 5.5056C23.7065 5.9752 24 6.54 24 7.2V21.6C24 22.26 23.7065 22.8252 23.1195 23.2956C22.5315 23.7652 21.825 24 21 24H3Z" fill="white"/>
</svg>
